<?xml version="1.0" encoding="UTF-8"?>
<svg enable-background="new 0 0 2630 1643.749" version="1.1" viewBox="0 0 2630 1643.749" xmlns="http://www.w3.org/2000/svg">
 <path d="m1280.1 523.14c9.863-16.078 21.887-30.789 33.792-45.411 38.044 42.447 96.193 137.66 110.79 173.97l1.066 0.195c3.349 8.487 16.71 33.53 33.312 77.642 31.919 82.601 47.628 167.39 48.736 250.48 8.223-27.602 8.226-35.453 8.226-82.624-0.383-5.146-2.2-10.136-1.105-15.222 2.152-9.994-3.252-21.29-2.728-33.281-0.27-0.446-2.002-20.593-0.204-28.047 1.501-2.589-0.298-7.552-0.758-8.414-1.077-2.022-0.493-3.015-2.022-11.032-6.28-32.936-24.069-44.555-28.973-90.582-1.162-10.907-0.541-26.113 0.882-41.502-7.948-15.956-16.576-31.318-25.852-46.027 12.926-10.008 25.862-20.01 38.793-30.016 0.223-1.412 0.438-2.825 0.629-4.241 0.286-2.124 0.047-5.173 0.843-7.141 5.078-12.564 0.205-9.557 4.781-15.95 1.617-2.259 2.499-4.508 5.2-13.298 6.337-20.627 7.325-32.199 9.107-41.34-22.209 17.652-42.959 35.713-60.239 51.729-20.986-30.054-43.474-59.087-67.584-86.71-7.346-11.018 5.722-90.225 46.865-186.04-0.573-2.21-1.145-4.42-1.719-6.629-0.271-0.041-0.543-0.082-0.814-0.123-0.484-1.969-0.969-3.937-1.453-5.906 0.269-1e-3 0.538-2e-3 0.806-4e-3 -0.552-0.047-1.85-5.31-2.137-6.023-1.252-3.117-2.238-6.243-2.664-9.589 0.463-0.102 0.926-0.205 1.389-0.307-0.968-4.143-3.366-7.938-6.693-10.591 0.493-0.565 1.594-0.312 1.791 0.411 0.521-0.228 1.042-0.455 1.563-0.683-1.893-2.028-3.431-4.385-4.535-6.93-1.982-4.567 0.331-2.979 0.416-3.859 0.055-0.571-0.746-0.734-0.794-1.128-0.13-1.041-1.2-1.394-1.948-1.91-1.721-2.734-5.493-4.693-7.233-6.571-0.958-0.328-2.066-0.494-2.738-1.321-2.111-1.92-5.294-1.522-7.459-3.333-2.944-1.983-9.128-1.418-11.165-2.913-0.318-0.068-5.586-2.37-10.146-1.187-2.009-0.223-4.037 0.347-5.995 0.805-0.105 0.137-0.312 0.414-0.417 0.554-0.166-6e-3 -0.5-0.019-0.665-0.025-0.882-0.914-2.041-1.601-3.33-1.665-1.394-0.099-2.741-0.914-4.145-0.43-1.668 0.548-3.566-0.051-5.097 0.926-1.165 0.637-2.531-0.105-3.712 0.36-2.905 1.308-6.957 1.61-10.092 2.378-0.732 1.708-2.606 2.853-4.46 2.726-1.667 1.42-3.334 2.841-5.002 4.261-1.802 3.361-6.508 6.937-9.218 11.826-0.201 0.363-2.416 5.252-2.36 5.66 0.121 0.888 1.497 1.111-0.267 3.455-2.684 3.569-7.015 11.878-2.559 10.454 0.092 0.302 0.048 0.564 0.035 0.889 0.188 0.016 0.563 0.051 0.751 0.067-0.121 1.964-1.627 3.375-2.114 5.211-0.204 0.888-1.028 1.401-1.394 2.206-0.14 0.268-0.353 0.462-0.634 0.586-0.169 0.783-0.347 1.563-0.452 2.359-0.146 0.127-0.443 0.382-0.589 0.506-0.022 0.414-0.041 0.831-0.051 1.251 0.271-0.013 0.812-0.038 1.082-0.054-0.076 1.14-0.888 2.018-1.143 3.104-0.401 1.652-0.366 3.413-1.038 4.998-0.245 0.7-0.111 1.461-0.229 2.187-0.739 1.901-0.624 3.989-1.146 5.95-0.462 1.662-0.392 3.397-0.398 5.103 0.07 0.678-0.719 0.984-0.866 1.582 0.443 1.566 0.092 3.193 0.175 4.794-0.175 0.318-5.807 4.754-5.151 12.409 0.115 1.054 0.439 2.079 0.446 3.145 0.016 1.223-0.14 2.49 0.328 3.658 1.569 4.178-0.959 10.229 3.779 15.841 1.27 0.955 2.356 2.248 3.941 2.703 3.193 0.755 6.609 0.669 9.71-0.452 0.449 0.458 0.831 0.981 1.182 1.528 3.005-0.05 0.093 3.292 6.276 15.474 0.416 0.82 0.793 1.78 1.345 2.519 0.637 0.854 1.361 1.298 1.551 2.444 0.33 1.989-0.874 4.754-0.261 9.24 0 0 3.808 13.698 5.207 21.684 1.179 6.732 1.387 4.128-0.856 19.139-1.157 7.739-4.208 15.429-6.812 21.733-4 7.617-4.597 3.866-6.816 5.285-0.844 0.506-1.786 0.777-2.731 1-0.7 0.71-1.687 0.942-2.572 1.324-0.767 0.401-1.413 0.99-2.06 1.557-2.065-0.411-1.217-1.227-7.188 2.448-1.29 0.702-2.365 1.715-3.343 2.797-0.547 0.606-1.136 1.758-1.964 2.021-0.93 0.295-2.087-0.255-3.107-0.036-1.947 0.417-4.102 2.354-5.746 0.56-2.238-2.442-5.131-8.255-9.996-14.18-2.544-2.687-4.794-5.625-7.313-8.325-2.667-3.139-10.614-9.759-18.035-17.264-36.623-37.041-22.243-13.67-43.082-69.003-10.607-29.216-21.158-44.336-19.872-57.466 4.059-16.331 60.614-60.437 73.826-69.99 16.997-12.217 88.014-52.031 88.333-52.152 0.188-0.013 0.567-0.041 0.758-0.054 1.197-1.442 1.079-3.543 2.365-4.966 0.191-0.048 0.57-0.15 0.758-0.201 0.42-1.184 1.856-1.156 2.887-1.353 0.484-0.541 0.926-1.121 1.363-1.706 1.183 1.267 1.367 2.913 5.24 2.913 0.022 0.185 0.07 0.557 0.092 0.745 0.197 0.067 0.592 0.207 0.793 0.274 9.392 12.981 48.62 21.601 98.293 49.132 7.211-12.728 14.899-25.492 23.083-38.192-30.622-10.303-56.813-17.028-57.013-17.09-17.786-3.558-23.677-10.717-30.584-12.301-1.972-0.61-1.298 0.725-5.721-6.042-4.243-8.161-8.217-22.202-8.595-23.889-5.99-19.495-9.379-31.837-9.379-52.086 3e-3 -1.41-0.624-2.699-1.031-4.017-1.449-1.573-0.475-1.78-1.716-9.719-0.974-2.664 0.151-5.164-1.041-10.751 0.029-1.563-0.662-3.031-0.599-4.591 0.414-1.318 0.414-2.894 0.01-4.212 0.045-1.289-0.624-2.413-1.445-3.349-1.554-0.156-2.817 0.821-3.973 1.706-1.152 0.949-1.557 2.435-1.964 3.804-0.5-0.261-0.965-0.576-1.273-1.05-0.512-0.787-3.869-3.534-4.719-0.787-0.67 2.165-1.151 4.379-1.692 6.578-0.254 1.032-0.357 3.392-1.041 4.231 0 0-1.195 5.666-1.673 7.55-0.534 2.103-1.672 4.375-1.957 6.505-0.989 7.386-3.202 4.362-4.75 15.475-1.264 17.962-5.694 26.75-5.944 27.486-3.583 9.758-8.741 34.864-19.413 48.44-0.752 0.887-4.596 1.31-7.765 3.015-6.348 3.145-8.493 7.192-23.413 12.996-61.7 24.002-108.03 50.115-135.11 67.835 40.398 75.281 70.412 160.31 81.478 245.68-5.966 7.007-11.88 14.063-17.735 21.17 10.1 18.052 11.884 9.634 23.013 54.591 1.903 7.689 1.953 9.649 3.222 12.571 7.631-12.318 15.537-24.417 23.713-36.271l0.768-0.285z"/>
 <path d="m1132.7 939.51c-17.782 13.478-34.89 27.221-47.878 38.026 0.05 2.493 0.111 4.989 0.189 7.487 2.569 48.399 12.774 97.883 26.524 144.76 3.302 1.276 9.18 3.555 9.591 3.773 1.286 0.273 1.77 0.519 2.531 0.945 1.165 0.065 3.622 1.401 5.412 1.722 2.145 1.137 12.701 4.342 24.275 7.691-11.225-41.568-18.738-85.281-21.166-130.31-1.076-24.919-0.869-49.636 0.522-74.096z"/>
 <path d="m1391.8 1505.8c-0.043-0.228-0.09-0.435-0.147-0.59-1.062-7.158-0.262-5.311 0.319-11.066 2.044-20.264 3.066-15.584 6.045-29.852 0.121-0.019 0.366-0.057 0.487-0.073-0.509-1.006 0.185-2.025 0.115-3.056 1.04-0.905 1.539-0.835 3.494-1.83-13.307 3.821-24.309 6.448-32.488 7.92 2.348-2.704 18.399-13.833 42.677-33.274 2.003-7.281 4.341-16.894 4.341-16.894 2.202-5.875 9.719-31.078 12.07-39.093-1.862 1.526-3.29 2.642-4.219 3.318 1.682-2.908 3.338-5.818 4.983-8.729-0.029-1.568-0.068-3.134 0.271-4.672 1.207-9.307 5.409-14.239 6.042-19.088 0.975-11.157 4.971-20.35 5.441-25.478 0.121-3.601 0.739-7.153 1.433-10.681 2.092-14.819 3.11-26.211 3.605-35.819-22.834 50.336-51.701 97.525-86.067 140.28-0.301 1.936-0.837 3.843-0.812 5.824-0.525 1.703 0.097 5.823-1.77 9.703-0.689 2.65-1.894 1.766-4.218 5.103-0.013 0.618-0.016 1.248 3e-3 1.897 2.711 5.347 6.357 6.958 7.682 12.734 0.567 0.71 0.853 1.741 0.337 2.582 0 2e-3 -1.63 6.058-1.63 6.058-0.118 0.828 0.178 1.78-0.318 2.54-0.083 0.834 0.111 1.751-0.29 2.547-0.051 0.274-0.095 0.57-0.134 0.891-0.015 0.029-1.167 4.338-1.235 4.807-0.201 0.302-0.395 0.621-0.586 0.955-0.013 0.159-0.038 0.474-0.051 0.634-1.143 1.682-2.611 6.379-2.731 6.698-3.557 8.99-3.578 6.201-8.038 14.319-9e-3 0.159-0.035 0.478-0.045 0.637-0.204 0.299-0.404 0.615-0.598 0.949-0.01 0.159-0.032 0.481-0.045 0.64-0.534 0.819-1.516 3.379-1.63 3.836-0.181 0.299-0.363 0.611-0.541 0.939-3e-3 0.796-0.08 1.611-0.337 2.391-0.697 2.05-0.083 4.247-0.404 6.358-0.264 0.86-0.267 1.767-0.287 2.677-0.064 0.134-0.188 0.401-0.248 0.535-0.01 3.553-0.379 7.083-0.71 10.611-0.411 0.605-0.213 1.359-0.366 2.063-2.358 10.248-2.221 2.636-2.442 15.017 0.02 0.319-0.906 6.925 0.08 10.302 0.072 0.148 2.059 9.497 2.251 11.477-0.029 0.121-0.086 0.363-0.115 0.484 0.392 0.786 0.331 1.671 0.315 2.547-0.07 1.222 0.42 2.394 0.376 3.636 0.396 0.592 0.311 10.092 0.309 10.41 0.483 1.535 0.494 7.156 0.882 8.274 0.63 1.853-0.745 3.537-0.627 5.38-0.027 2.333 0.98 7.291 1.219 8.003 3.628 7.219 0.016 4.301 3.957 14.475 2.258 5.204 8.964 4.317 15.516 5.262 1.643 0.363 3.034-0.751 4.46-1.356 3.71-1.667 2.818-1.671 4.737-6.93 0.506-1.324-0.067-2.868 0.78-4.072 0.561-1.174 2.838-2.227 3.782 1.124 0.398 1.464 0.099 2.996 0.223 4.498 2.144 5.547 0.445 3.275 4.298 5.975 5.728 3.683 9.467-1.64 11.906-3.512 1.681-0.264 3.429 0.064 5.135-0.048 3.634-0.696 2.298-3.98 4.536-4.759 1.442-0.372 2.942 0.204 4.403-0.156 1.219 0.048 1.958-1.038 2.69-1.837 0.584-1.343-0.424-4.347 1.754-4.438 5.197-0.779 7.588 1.017 8.701-0.707 2.08-5.072 0.072-15.544-11.587-25.526-2.931-2.509 1.48-0.902-14.069-12.336-5.036-3.045-4.507-9.17-6.023-14.857-0.36-0.942-0.242-1.977-0.646-2.894-0.969-2.725-0.789-2.151-0.92-2.849-0.704-1.323-2.13-7.051-2.13-7.051-0.039-2.914 0.527-4.316 1.178-5.367 0.162-0.544 0.309-1.082 0.427-1.614 0.175-0.334 0.36-0.653 0.554-0.949 0.013-0.156 0.045-0.471 0.057-0.63 0.296-0.544 0.586-1.082 0.891-1.601 0.016-0.156 0.045-0.471 0.06-0.627 0.178-0.331 0.363-0.643 0.544-0.942 0.178-1.207 1.213-2.018 1.413-3.202 1.363-2.715 2-3.998 2.282-5.158-22.317-4.11-35.273-6.844-35.582-6.943 11.628-1.914 23.314-4.182 35.025-6.759z"/>
 <path d="m1215.5 463.25c-18.888-39.702-30.228-46.057-48.266-98.162-28.087-81.135-18.045-60.4-23.083-77.94-0.752-2.618-2.031-4.964-2.948-7.498-7.79-31.16-6.225-30.436-2.742-33.322 1.344-2.194 10.702-9.871 27.186-20.656-28.639-53.368-62.495-101.84-98.53-142.04-45.768 45.768-122.1 162.7-156.88 248.76-38.044 97.5-28.71 216.34 3.258 315.19 2.371-5.528 23.204-133.91 90.446-208.62 57.474 26.202 128.5 83.763 171.68 124.07 16.849-24.311 34.976-47.694 53.767-70.508-1.201-2.147-2.519-4.665-3.986-7.696-3.447-7.127-6.512-14.429-9.904-21.58z"/>
 <path d="m1552.5 191.39c0.318 0.238 51.476 23.334 56.574 28.779 2.698 2.508 4.129 7.248 3.882 7.863-0.433 1.582 0.156 3.266-0.35 4.829-4.058 12.53-6.474 24.711-6.93 37.801-0.062 1.779-21.895 97.892-46.401 139.95-7.794 13.378-21.64 49.974-21.767 50.3-8.758 21.511-2.89 13.329-15.437 31.802-4.477 6.591-6.187 11.946-7.48 18.578 36.138-28.721 76.148-56.355 111.42-72.315 65.015 70.259 88.495 203.51 90.492 208.56 32.839-100.35 42.471-227.25-2.057-327.74-48.981-107.05-110.85-194.22-151.64-236.18-24.606 27.551-46.338 56.759-65.391 86.323 17.952 6.041 37.426 13.31 54.082 21.192 0.318 0.102 0.649 0.188 0.996 0.258z"/>
 <path d="m1433.6 291.26c0.527 2.362 1.208 4.689 2.037 6.963 0.646 1.771 2.242 3.93 2.275 5.795 0.398 1.901-0.187 3.795-0.111 5.708 0.031 0.876-0.586 1.636-0.478 2.515 0.35 3.951-0.786 7.866-0.417 11.817 0.091 6.688-1.133 8.365-4.728 11.585-1.109 0.993-6.222 2.98-6.155 0.576-0.078-0.318-0.674-0.317-0.72 0.546-0.265 4.989-0.733 9.867-2.574 14.565-1.223 3.121-2.977 7.198-5.781 9.214-0.5 0.529-1.984 3.199-3.632 4.011-0.321 7.667-6.007 34.095-3.273 42.328 1.836 8.474 8.086 19.656 15.822 25.828 0.962 0.768 2.334 0.201 3.378 0.793 2.057 1.366 4.686 1.656 6.574 3.308 0.92 0.709 2.11 0.78 3.199 1.066 1.086 0.299 1.961 1.044 2.948 1.563 5.011 2.438 4.267 2.753 6.469 5.746 0.296 0.369 0.605 0.85 1.133 0.907 1.215 0.24 6.879 1.829 9.025-1.528 6.247-9.552 38.751-47.934 39.058-48.253 23.443-28.021 20.202-23.382 36.964-75.936 15.423-49.851 24.505-50.802 2.45-69.243-21.725-18.259-43.014-32.111-62.669-43.005-15.821 27.925-29.335 55.669-40.705 82.147 0.087 0.335 0.174 0.67 0.26 1.005-0.117-8e-3 -0.233-0.015-0.349-0.021z"/>
 <path d="m883.58 759.26c-38.868-81.357-60.388-167.02-47.318-293.72 2.596-9.764-150.11-172.8-353.86-240.21-11.121 152.42 30.018 330.74 84.382 430.09 83.549 2.534 194.32 31.841 316.8 103.84z"/>
 <path d="m1778.7 740.21c78.328-43.589 188.77-81.17 284.46-84.788 54.012-97.44 95.692-278.41 84.397-430.09-110.32 35.863-259.62 124.35-353.64 237.55-0.411 28.63 24.214 147.3-47.513 296.35 10.914-6.08 21.242-13.165 32.291-19.02z"/>
 <path d="m1058.1 1113.9c-0.156-0.019-0.471-0.057-0.627-0.076-3.968-2.461-26.33-10.611-33.532-22.915-5.967-7.968-6.162-12.166-6.698-13.536 0.067-1.908-0.226-3.839-0.24-5.741-0.181-24.324 3.997-32.342 16.985-46.351 0.319-0.285 23.484-25.079 29.562-29.304 3.454-3.313 11.107-9.98 21.293-18.454-2.836-140.58 37.542-272.23 89.915-354.24-51.671-40.022-103.36-80.044-155.16-119.9-62.053 100.12-85.617 253.69-81.755 375.04 8.013 195.62 137.24 387 283.02 502.9-3.072-7.109-70.39-118.89-109.3-251.56-1.239-0.479-2.117-0.817-2.205-0.85-17.58-6.442-34.015-5.879-51.251-15.02z"/>
 <path d="m1491.2 607.86c-1.76 2.341-7.352 32.222-10.054 61.446 91.767 184.22 92.707 447.79-51.659 703.32 0.018 0.986 0.032 1.972-0.054 2.953-8e-3 0.05-0.268 0.953-0.709 2.458 27.025-22.155 147.28-132.59 215.8-293.24 89.674-211.67 38.157-463.78-34.077-581.4-38.823 29.897-77.597 59.877-116.36 89.869-0.298 1.887-0.617 3.77-0.973 5.647-0.549 2.888-1.889 6.011-1.915 8.951z"/>
 <path d="m741.69 1210.4c-68.808-82.954-122.68-159.15-163.64-275.06-45.714-129.54-39.739-217.41-40.472-232.38-23.753-47.653-167.63-156.22-290.98-177.55-25.129 157.17 15.88 300.29 97.187 435.56 67.709 114.19 267.73 216.88 397.91 249.44z"/>
 <path d="m2094.2 699.9c-3.063 3.213-1.636 7.956-1.937 11.935 4.301 182.38-86.319 358.41-203.94 498.53 130.31-32.743 299.78-124.07 375.01-216.76 44.414-52.929 155.33-244.55 120.1-468.24-10.354 1.042-182.31 39.145-289.23 174.53z"/>
 <path d="m589.87 708.38c7.809 104.88 13.945 250.67 130.95 409.98 164.01 221.3 451.8 333.63 539.57 348.94-1.289-1.501-400.2-277.35-370.13-651.58-16.749-14.344-136.07-88.531-300.39-107.34z"/>
 <path d="m1407.9 1452.6c-0.282 1.513 0.719 2.712-1.484 3.734-0.876 0.442-1.398 1.318-2.184 1.881-0.853 0.513-1.531 0.883-2.093 1.169 135.5-38.911 511.32-202.35 607.85-545.16 19.38-66.923 26.316-136.61 30.174-205.93-95.98 8.259-234.68 58.175-300.39 107.46 6.155 70.961-8.286 142.1-30.114 209.39-71.861 212.2-223.08 349.45-297.33 408.9-0.733 2.667-1.422 5.023-1.934 6.476-1.211 3.944-1.611 8.073-2.494 12.094z"/>
 <path d="m1350.9 941.74c-67.026 28.098-67.613 44.488-157.05 90.593-20.521 11.603-18.817 11.505-30.412 21.476-0.837 0.751-1.884 1.289-2.572 2.203-0.239 0.754-0.49 0.713 12.301 6.666 2.301 1.125 4.79-0.043 8.131 3.629 1.259 1.412 7.429 3.838 14.784 8.452 11.204 6.25 9.904 6.287 12.333 7.726 6.841 4.303 9.195 7.111 11.352 7.433 4.497 0.742 4.859 3.573 6.294 5.161 4.042 3.261 5.271 1.529 7.819 3.712 0.993 0.802 1.903 1.792 3.18 2.158 5.05 1.591 2.197 2.26 12.18 6.981 1.474 0.682 2.713 1.764 4.177 2.474 2.503 1.449 5.438 1.955 7.851 3.588 8.164 5.28 10.415 1.988 13.501 5.049 2.512 2.611 6.027 3.897 9.452 4.82 1.076 0.277 2.191 0.054 3.289 0.118 3.672 0.109 2.733 5.291 3.986 7.258 0.519 0.341 5.254 2.531 7.691 3.381 0.13 0.102 0.394 0.306 0.528 0.411 8.764 2.627 36.624 16.571 53.079 11.343 1.633-0.541 3.374-0.35 5.068-0.417 13.395 0.063 13.569-0.471 18.999 2.066 0.433 0.136 0.891 0.42 1.372 0.286 0 0 2.422-30.656 7.535-69.089 3.093-21.181 1.834-83.564 0.92-89.159-2.966-27.317-24.278-53.811-35.789-48.319z"/>
 <path d="m1361.3 1402.6c0.417-10.108 1.951-0.549 1.009-25.802-0.303-5.192 3.367-6.772 1.92-13.982-0.027-0.319 0.727-7.59 0.057-10.827-0.137-2.451-0.026-4.912-0.051-7.357 0.095-1.173-1.46-16.292-0.223-19.882 2.612-7.999 3.658-7.991 3.267-9.34-0.511-1.764-3.643-1.438-4.248-3.173-0.273-0.784 0.127-1.623 0.231-2.446 0.238-1.892-3.508-2.83-4.7-4.049-1.216-1.107-1.375-2.858-1.633-4.377 0.104-4.067-2.535-5.059-1.398-10.897 1e-3 -5e-3 0.475-6.652 0.522-6.883 1.42-6.797-2.607-10.451-12.747-26.617-8.656-12.512-5.189-3.799-11.54-19.263-2.84-5.692-6.071-11.206-9.796-16.363-11.12-14.82-48.299-36.524-48.619-36.738-1.378-0.351-3.563-2.043-6.861-3.266-1.238 0.596-2.445 1.248-3.661 1.885-0.964 0.044-2.009 0.121-2.83-0.478-10.486-7.314-26.482-14.34-29.002-15.704-0.156-0.022-0.471-0.067-0.627-0.086-2.229-1.28-13.41-4.801-15.94-5.568-5.88-2.398-12.378-2.416-15.224-2.846-3.635-0.517-4.601-2.861-11.499-5.021-0.186-0.053-18.233-4.986-34.314-9.64 36.08 133.62 110.58 245.02 178.39 306.27 9.86-10.676 19.338-21.69 28.437-33.011 7e-3 -0.043 0.016-0.086 0.022-0.129 0.201-0.863 0.54-12.798 1.06-14.409z"/>
 <path d="m1240.1 872.06c1.469-1.703 10.085-10.17 12.849-10.318 1.793-2.407 4.706-7.194 9.299-10.865 1.403-0.948 2.052-2.715 3.666-3.414 2.179-0.944 6.624-0.491 6.505-4.409-0.09-2.974-6.358-4.322-3.072-10.946 1.944-3.917 3.652-8.166 6.245-11.697 2.113-2.878 3.446-3.013 3.179-9.001-0.365-8.2-1.17-20.991 2.032-30.089 14.024-39.847 14.675-33.468 13.108-60.787-3.197-55.727-12.159-79.153-14.4-86.614-0.096-0.32-8.142-26.625-8.097-27.821-0.079-0.318-2.057-10.074-3.432-13.845-3.636-9.971-7.199-10.963-7.368-15.309-0.201-5.151 1.842-4.889-2.773-12.931-1.07-1.865-1.76-3.167-2.261-4.321-69.102 111.55-115.05 241.56-122.91 379.82 17.612-13.349 35.884-26.437 51.469-36.15 30.029-18.388 51.63-25.691 55.962-31.3z"/>
 <path d="m1507.8 980.01c-4.182 14.037-10.488 33.177-20.005 65.206-50.417 180.11-38.983 182.01-41.543 231.67 41.365-91.189 62.936-192.7 61.548-296.88z"/>
 <path d="m35 1288c542.12 336.9 839.36 288.91 1226.4 227.15 3.963-0.675 8.046-0.946 11.799-2.537-172.28-29.08-343.65-125.76-453.46-234.94-236.12-80.681-616.46-55.154-784.75 10.328z"/>
 <path d="m2550.7 1274.5c-405.99-106.9-735.63-3.563-743.6 5.93-92.253 96.37-256.18 190.38-415.27 225.39 0.454 2.417 0.179 8.469 0.703 9.667 0.067 1.962 0.118 2.944-0.147 4.036 88.124 16.231 322.28 53.939 500.73 35.736 251.34-23.603 488.06-134.85 701.93-267.3-14.32-5.797-29.497-9.264-44.344-13.453z"/>
</svg>
