<?xml version="1.0" standalone="no"?>
<!DOCTYPE svg PUBLIC "-//W3C//DTD SVG 1.0//EN" "http://www.w3.org/TR/2001/REC-SVG-20010904/DTD/svg10.dtd">
<svg xmlns="http://www.w3.org/2000/svg" xmlns:xlink="http://www.w3.org/1999/xlink" id="body_1" width="24" height="18">

<g transform="matrix(0.7741935 0 0 0.7826087 0 0)">
	<g transform="matrix(0.13777778 0 0 0.1362963 -0 1.2777778)">
	</g>
    <path transform="matrix(0.13777778 0 0 0.1362963 -0 1.2777778)"  d="M0 0L225 0L225 150L0 150L0 0z" stroke="none" fill="#FF9933" fill-rule="nonzero" />
	<g transform="matrix(0.13777778 0 0 0.1362963 -0 1.2777778)">
	</g>
    <path transform="matrix(0.13777778 0 0 0.1362963 -0 1.2777778)"  d="M0 50L225 50L225 100L0 100L0 50z" stroke="none" fill="#FFFFFF" fill-rule="nonzero" />
	<g transform="matrix(0.13777778 0 0 0.1362963 -0 1.2777778)">
	</g>
    <path transform="matrix(0.13777778 0 0 0.1362963 -0 1.2777778)"  d="M0 100L225 100L225 150L0 150L0 100z" stroke="none" fill="#128807" fill-rule="nonzero" />
	<g transform="matrix(0.13777778 0 0 0.1362963 15.5 11.499999)">
	</g>
    <path transform="matrix(0.13777778 0 0 0.1362963 15.5 11.499999)"  d="M20 0C 20 -5.5228477 18.047379 -10.236893 14.142136 -14.142136C 10.236893 -18.047379 5.5228477 -20 0 -20C -5.5228477 -20 -10.236893 -18.047379 -14.142136 -14.142136C -18.047379 -10.236893 -20 -5.5228477 -20 0C -20 5.5228477 -18.047379 10.236893 -14.142136 14.142136C -10.236893 18.047379 -5.5228477 20 0 20C 5.5228477 20 10.236893 18.047379 14.142136 14.142136C 18.047379 10.236893 20 5.5228477 20 0" stroke="none" fill="#000088" fill-rule="nonzero" />
	<g transform="matrix(0.13777778 0 0 0.1362963 15.5 11.499999)">
	</g>
    <path transform="matrix(0.13777778 0 0 0.1362963 15.5 11.499999)"  d="M17.5 0C 17.5 -4.832492 15.791456 -8.957281 12.374369 -12.374369C 8.957281 -15.791456 4.832492 -17.5 0 -17.5C -4.832492 -17.5 -8.957281 -15.791456 -12.374369 -12.374369C -15.791456 -8.957281 -17.5 -4.832492 -17.5 0C -17.5 4.832492 -15.791456 8.957281 -12.374369 12.374369C -8.957281 15.791456 -4.832492 17.5 0 17.5C 4.832492 17.5 8.957281 15.791456 12.374369 12.374369C 15.791456 8.957281 17.5 4.832492 17.5 0" stroke="none" fill="#FFFFFF" fill-rule="nonzero" />
	<g transform="matrix(0.13777778 0 0 0.1362963 15.5 11.499999)">
	</g>
    <path transform="matrix(0.13777778 0 0 0.1362963 15.5 11.499999)"  d="M3.5 0C 3.5000002 -0.9664983 3.1582913 -1.7914562 2.4748738 -2.4748738C 1.7914562 -3.1582913 0.9664983 -3.5000002 0 -3.5C -0.9664983 -3.5000002 -1.7914562 -3.1582913 -2.4748738 -2.4748738C -3.1582913 -1.7914562 -3.5000002 -0.9664983 -3.5 0C -3.5000002 0.9664983 -3.1582913 1.7914562 -2.4748738 2.4748738C -1.7914562 3.1582913 -0.9664983 3.5000002 0 3.5C 0.9664983 3.5000002 1.7914562 3.1582913 2.4748738 2.4748738C 3.1582913 1.7914562 3.5000002 0.9664983 3.5 0" stroke="none" fill="#000088" fill-rule="nonzero" />
	<g transform="matrix(0.13659906 0.017790232 -0.017983608 0.13513026 17.89048 11.811328)">
	</g>
    <path transform="matrix(0.13659906 0.017790232 -0.017983608 0.13513026 17.89048 11.811328)"  d="M0.875 0C 0.87500006 -0.24162458 0.78957283 -0.44786406 0.61871845 -0.61871845C 0.44786406 -0.78957283 0.24162458 -0.87500006 0 -0.875C -0.24162458 -0.87500006 -0.44786406 -0.78957283 -0.61871845 -0.61871845C -0.78957283 -0.44786406 -0.87500006 -0.24162458 -0.875 0C -0.87500006 0.24162458 -0.78957283 0.44786406 -0.61871845 0.61871845C -0.44786406 0.78957283 -0.24162458 0.87500006 0 0.875C 0.24162458 0.87500006 0.44786406 0.78957283 0.61871845 0.61871845C 0.78957283 0.44786406 0.87500006 0.24162458 0.875 0" stroke="none" fill="#000088" fill-rule="nonzero" />
	<g transform="matrix(0.13777778 0 0 0.1362963 15.5 11.499999)">
	</g>
    <path transform="matrix(0.13777778 0 0 0.1362963 15.5 11.499999)"  d="M0 17.5L0.6 7L0 2L-0.6 7L0 17.5z" stroke="none" fill="#000088" fill-rule="nonzero" />
	<g transform="matrix(0.13659906 0.017790232 -0.017983608 0.13513026 33.39048 22.033546)">
	</g>
    <path transform="matrix(0.13659906 0.017790232 -0.017983608 0.13513026 33.39048 22.033546)"  d="M0.875 0C 0.87500006 -0.24162458 0.78957283 -0.44786406 0.61871845 -0.61871845C 0.44786406 -0.78957283 0.24162458 -0.87500006 0 -0.875C -0.24162458 -0.87500006 -0.44786406 -0.78957283 -0.61871845 -0.61871845C -0.78957283 -0.44786406 -0.87500006 -0.24162458 -0.875 0C -0.87500006 0.24162458 -0.78957283 0.44786406 -0.61871845 0.61871845C -0.44786406 0.78957283 -0.24162458 0.87500006 0 0.875C 0.24162458 0.87500006 0.44786406 0.78957283 0.61871845 0.61871845C 0.78957283 0.44786406 0.87500006 0.24162458 0.875 0" stroke="none" fill="#000088" fill-rule="nonzero" />
	<g transform="matrix(0.13777778 0 0 0.1362963 31 21.72222)">
	</g>
    <path transform="matrix(0.13777778 0 0 0.1362963 31 21.72222)"  d="M0 17.5L0.6 7L0 2L-0.6 7L0 17.5z" stroke="none" fill="#000088" fill-rule="nonzero" />
	<g transform="matrix(0.13659906 0.017790232 -0.017983608 0.13513026 48.89048 32.25577)">
	</g>
    <path transform="matrix(0.13659906 0.017790232 -0.017983608 0.13513026 48.89048 32.25577)"  d="M0.875 0C 0.87500006 -0.24162458 0.78957283 -0.44786406 0.61871845 -0.61871845C 0.44786406 -0.78957283 0.24162458 -0.87500006 0 -0.875C -0.24162458 -0.87500006 -0.44786406 -0.78957283 -0.61871845 -0.61871845C -0.78957283 -0.44786406 -0.87500006 -0.24162458 -0.875 0C -0.87500006 0.24162458 -0.78957283 0.44786406 -0.61871845 0.61871845C -0.44786406 0.78957283 -0.24162458 0.87500006 0 0.875C 0.24162458 0.87500006 0.44786406 0.78957283 0.61871845 0.61871845C 0.78957283 0.44786406 0.87500006 0.24162458 0.875 0" stroke="none" fill="#000088" fill-rule="nonzero" />
	<g transform="matrix(0.13777778 0 0 0.1362963 46.5 31.944443)">
	</g>
    <path transform="matrix(0.13777778 0 0 0.1362963 46.5 31.944443)"  d="M0 17.5L0.6 7L0 2L-0.6 7L0 17.5z" stroke="none" fill="#000088" fill-rule="nonzero" />
	<g transform="matrix(0.13659906 0.017790232 -0.017983608 0.13513026 33.39048 22.033546)">
	</g>
    <path transform="matrix(0.13659906 0.017790232 -0.017983608 0.13513026 33.39048 22.033546)"  d="M0.875 0C 0.87500006 -0.24162458 0.78957283 -0.44786406 0.61871845 -0.61871845C 0.44786406 -0.78957283 0.24162458 -0.87500006 0 -0.875C -0.24162458 -0.87500006 -0.44786406 -0.78957283 -0.61871845 -0.61871845C -0.78957283 -0.44786406 -0.87500006 -0.24162458 -0.875 0C -0.87500006 0.24162458 -0.78957283 0.44786406 -0.61871845 0.61871845C -0.44786406 0.78957283 -0.24162458 0.87500006 0 0.875C 0.24162458 0.87500006 0.44786406 0.78957283 0.61871845 0.61871845C 0.78957283 0.44786406 0.87500006 0.24162458 0.875 0" stroke="none" fill="#000088" fill-rule="nonzero" />
	<g transform="matrix(0.13777778 0 0 0.1362963 31 21.72222)">
	</g>
    <path transform="matrix(0.13777778 0 0 0.1362963 31 21.72222)"  d="M0 17.5L0.6 7L0 2L-0.6 7L0 17.5z" stroke="none" fill="#000088" fill-rule="nonzero" />
	<g transform="matrix(0.13659906 0.017790232 -0.017983608 0.13513026 64.39047 42.47799)">
	</g>
    <path transform="matrix(0.13659906 0.017790232 -0.017983608 0.13513026 64.39047 42.47799)"  d="M0.875 0C 0.87500006 -0.24162458 0.78957283 -0.44786406 0.61871845 -0.61871845C 0.44786406 -0.78957283 0.24162458 -0.87500006 0 -0.875C -0.24162458 -0.87500006 -0.44786406 -0.78957283 -0.61871845 -0.61871845C -0.78957283 -0.44786406 -0.87500006 -0.24162458 -0.875 0C -0.87500006 0.24162458 -0.78957283 0.44786406 -0.61871845 0.61871845C -0.44786406 0.78957283 -0.24162458 0.87500006 0 0.875C 0.24162458 0.87500006 0.44786406 0.78957283 0.61871845 0.61871845C 0.78957283 0.44786406 0.87500006 0.24162458 0.875 0" stroke="none" fill="#000088" fill-rule="nonzero" />
	<g transform="matrix(0.13777778 0 0 0.1362963 62 42.166664)">
	</g>
    <path transform="matrix(0.13777778 0 0 0.1362963 62 42.166664)"  d="M0 17.5L0.6 7L0 2L-0.6 7L0 17.5z" stroke="none" fill="#000088" fill-rule="nonzero" />
	<g transform="matrix(0.13659906 0.017790232 -0.017983608 0.13513026 33.39048 22.033546)">
	</g>
    <path transform="matrix(0.13659906 0.017790232 -0.017983608 0.13513026 33.39048 22.033546)"  d="M0.875 0C 0.87500006 -0.24162458 0.78957283 -0.44786406 0.61871845 -0.61871845C 0.44786406 -0.78957283 0.24162458 -0.87500006 0 -0.875C -0.24162458 -0.87500006 -0.44786406 -0.78957283 -0.61871845 -0.61871845C -0.78957283 -0.44786406 -0.87500006 -0.24162458 -0.875 0C -0.87500006 0.24162458 -0.78957283 0.44786406 -0.61871845 0.61871845C -0.44786406 0.78957283 -0.24162458 0.87500006 0 0.875C 0.24162458 0.87500006 0.44786406 0.78957283 0.61871845 0.61871845C 0.78957283 0.44786406 0.87500006 0.24162458 0.875 0" stroke="none" fill="#000088" fill-rule="nonzero" />
	<g transform="matrix(0.13777778 0 0 0.1362963 31 21.72222)">
	</g>
    <path transform="matrix(0.13777778 0 0 0.1362963 31 21.72222)"  d="M0 17.5L0.6 7L0 2L-0.6 7L0 17.5z" stroke="none" fill="#000088" fill-rule="nonzero" />
	<g transform="matrix(0.13659906 0.017790232 -0.017983608 0.13513026 48.89048 32.25577)">
	</g>
    <path transform="matrix(0.13659906 0.017790232 -0.017983608 0.13513026 48.89048 32.25577)"  d="M0.875 0C 0.87500006 -0.24162458 0.78957283 -0.44786406 0.61871845 -0.61871845C 0.44786406 -0.78957283 0.24162458 -0.87500006 0 -0.875C -0.24162458 -0.87500006 -0.44786406 -0.78957283 -0.61871845 -0.61871845C -0.78957283 -0.44786406 -0.87500006 -0.24162458 -0.875 0C -0.87500006 0.24162458 -0.78957283 0.44786406 -0.61871845 0.61871845C -0.44786406 0.78957283 -0.24162458 0.87500006 0 0.875C 0.24162458 0.87500006 0.44786406 0.78957283 0.61871845 0.61871845C 0.78957283 0.44786406 0.87500006 0.24162458 0.875 0" stroke="none" fill="#000088" fill-rule="nonzero" />
	<g transform="matrix(0.13777778 0 0 0.1362963 46.5 31.944443)">
	</g>
    <path transform="matrix(0.13777778 0 0 0.1362963 46.5 31.944443)"  d="M0 17.5L0.6 7L0 2L-0.6 7L0 17.5z" stroke="none" fill="#000088" fill-rule="nonzero" />
	<g transform="matrix(0.13659906 0.017790232 -0.017983608 0.13513026 33.39048 22.033546)">
	</g>
    <path transform="matrix(0.13659906 0.017790232 -0.017983608 0.13513026 33.39048 22.033546)"  d="M0.875 0C 0.87500006 -0.24162458 0.78957283 -0.44786406 0.61871845 -0.61871845C 0.44786406 -0.78957283 0.24162458 -0.87500006 0 -0.875C -0.24162458 -0.87500006 -0.44786406 -0.78957283 -0.61871845 -0.61871845C -0.78957283 -0.44786406 -0.87500006 -0.24162458 -0.875 0C -0.87500006 0.24162458 -0.78957283 0.44786406 -0.61871845 0.61871845C -0.44786406 0.78957283 -0.24162458 0.87500006 0 0.875C 0.24162458 0.87500006 0.44786406 0.78957283 0.61871845 0.61871845C 0.78957283 0.44786406 0.87500006 0.24162458 0.875 0" stroke="none" fill="#000088" fill-rule="nonzero" />
	<g transform="matrix(0.13777778 0 0 0.1362963 31 21.72222)">
	</g>
    <path transform="matrix(0.13777778 0 0 0.1362963 31 21.72222)"  d="M0 17.5L0.6 7L0 2L-0.6 7L0 17.5z" stroke="none" fill="#000088" fill-rule="nonzero" />
	<g transform="matrix(0.13659906 0.017790232 -0.017983608 0.13513026 79.89047 52.700214)">
	</g>
    <path transform="matrix(0.13659906 0.017790232 -0.017983608 0.13513026 79.89047 52.700214)"  d="M0.875 0C 0.87500006 -0.24162458 0.78957283 -0.44786406 0.61871845 -0.61871845C 0.44786406 -0.78957283 0.24162458 -0.87500006 0 -0.875C -0.24162458 -0.87500006 -0.44786406 -0.78957283 -0.61871845 -0.61871845C -0.78957283 -0.44786406 -0.87500006 -0.24162458 -0.875 0C -0.87500006 0.24162458 -0.78957283 0.44786406 -0.61871845 0.61871845C -0.44786406 0.78957283 -0.24162458 0.87500006 0 0.875C 0.24162458 0.87500006 0.44786406 0.78957283 0.61871845 0.61871845C 0.78957283 0.44786406 0.87500006 0.24162458 0.875 0" stroke="none" fill="#000088" fill-rule="nonzero" />
	<g transform="matrix(0.13777778 0 0 0.1362963 77.5 52.388885)">
	</g>
    <path transform="matrix(0.13777778 0 0 0.1362963 77.5 52.388885)"  d="M0 17.5L0.6 7L0 2L-0.6 7L0 17.5z" stroke="none" fill="#000088" fill-rule="nonzero" />
	<g transform="matrix(0.13659906 0.017790232 -0.017983608 0.13513026 33.39048 22.033546)">
	</g>
    <path transform="matrix(0.13659906 0.017790232 -0.017983608 0.13513026 33.39048 22.033546)"  d="M0.875 0C 0.87500006 -0.24162458 0.78957283 -0.44786406 0.61871845 -0.61871845C 0.44786406 -0.78957283 0.24162458 -0.87500006 0 -0.875C -0.24162458 -0.87500006 -0.44786406 -0.78957283 -0.61871845 -0.61871845C -0.78957283 -0.44786406 -0.87500006 -0.24162458 -0.875 0C -0.87500006 0.24162458 -0.78957283 0.44786406 -0.61871845 0.61871845C -0.44786406 0.78957283 -0.24162458 0.87500006 0 0.875C 0.24162458 0.87500006 0.44786406 0.78957283 0.61871845 0.61871845C 0.78957283 0.44786406 0.87500006 0.24162458 0.875 0" stroke="none" fill="#000088" fill-rule="nonzero" />
	<g transform="matrix(0.13777778 0 0 0.1362963 31 21.72222)">
	</g>
    <path transform="matrix(0.13777778 0 0 0.1362963 31 21.72222)"  d="M0 17.5L0.6 7L0 2L-0.6 7L0 17.5z" stroke="none" fill="#000088" fill-rule="nonzero" />
	<g transform="matrix(0.13659906 0.017790232 -0.017983608 0.13513026 48.89048 32.25577)">
	</g>
    <path transform="matrix(0.13659906 0.017790232 -0.017983608 0.13513026 48.89048 32.25577)"  d="M0.875 0C 0.87500006 -0.24162458 0.78957283 -0.44786406 0.61871845 -0.61871845C 0.44786406 -0.78957283 0.24162458 -0.87500006 0 -0.875C -0.24162458 -0.87500006 -0.44786406 -0.78957283 -0.61871845 -0.61871845C -0.78957283 -0.44786406 -0.87500006 -0.24162458 -0.875 0C -0.87500006 0.24162458 -0.78957283 0.44786406 -0.61871845 0.61871845C -0.44786406 0.78957283 -0.24162458 0.87500006 0 0.875C 0.24162458 0.87500006 0.44786406 0.78957283 0.61871845 0.61871845C 0.78957283 0.44786406 0.87500006 0.24162458 0.875 0" stroke="none" fill="#000088" fill-rule="nonzero" />
	<g transform="matrix(0.13777778 0 0 0.1362963 46.5 31.944443)">
	</g>
    <path transform="matrix(0.13777778 0 0 0.1362963 46.5 31.944443)"  d="M0 17.5L0.6 7L0 2L-0.6 7L0 17.5z" stroke="none" fill="#000088" fill-rule="nonzero" />
	<g transform="matrix(0.13659906 0.017790232 -0.017983608 0.13513026 33.39048 22.033546)">
	</g>
    <path transform="matrix(0.13659906 0.017790232 -0.017983608 0.13513026 33.39048 22.033546)"  d="M0.875 0C 0.87500006 -0.24162458 0.78957283 -0.44786406 0.61871845 -0.61871845C 0.44786406 -0.78957283 0.24162458 -0.87500006 0 -0.875C -0.24162458 -0.87500006 -0.44786406 -0.78957283 -0.61871845 -0.61871845C -0.78957283 -0.44786406 -0.87500006 -0.24162458 -0.875 0C -0.87500006 0.24162458 -0.78957283 0.44786406 -0.61871845 0.61871845C -0.44786406 0.78957283 -0.24162458 0.87500006 0 0.875C 0.24162458 0.87500006 0.44786406 0.78957283 0.61871845 0.61871845C 0.78957283 0.44786406 0.87500006 0.24162458 0.875 0" stroke="none" fill="#000088" fill-rule="nonzero" />
	<g transform="matrix(0.13777778 0 0 0.1362963 31 21.72222)">
	</g>
    <path transform="matrix(0.13777778 0 0 0.1362963 31 21.72222)"  d="M0 17.5L0.6 7L0 2L-0.6 7L0 17.5z" stroke="none" fill="#000088" fill-rule="nonzero" />
	<g transform="matrix(0.13659906 0.017790232 -0.017983608 0.13513026 64.39047 42.47799)">
	</g>
    <path transform="matrix(0.13659906 0.017790232 -0.017983608 0.13513026 64.39047 42.47799)"  d="M0.875 0C 0.87500006 -0.24162458 0.78957283 -0.44786406 0.61871845 -0.61871845C 0.44786406 -0.78957283 0.24162458 -0.87500006 0 -0.875C -0.24162458 -0.87500006 -0.44786406 -0.78957283 -0.61871845 -0.61871845C -0.78957283 -0.44786406 -0.87500006 -0.24162458 -0.875 0C -0.87500006 0.24162458 -0.78957283 0.44786406 -0.61871845 0.61871845C -0.44786406 0.78957283 -0.24162458 0.87500006 0 0.875C 0.24162458 0.87500006 0.44786406 0.78957283 0.61871845 0.61871845C 0.78957283 0.44786406 0.87500006 0.24162458 0.875 0" stroke="none" fill="#000088" fill-rule="nonzero" />
	<g transform="matrix(0.13777778 0 0 0.1362963 62 42.166664)">
	</g>
    <path transform="matrix(0.13777778 0 0 0.1362963 62 42.166664)"  d="M0 17.5L0.6 7L0 2L-0.6 7L0 17.5z" stroke="none" fill="#000088" fill-rule="nonzero" />
	<g transform="matrix(0.13659906 0.017790232 -0.017983608 0.13513026 33.39048 22.033546)">
	</g>
    <path transform="matrix(0.13659906 0.017790232 -0.017983608 0.13513026 33.39048 22.033546)"  d="M0.875 0C 0.87500006 -0.24162458 0.78957283 -0.44786406 0.61871845 -0.61871845C 0.44786406 -0.78957283 0.24162458 -0.87500006 0 -0.875C -0.24162458 -0.87500006 -0.44786406 -0.78957283 -0.61871845 -0.61871845C -0.78957283 -0.44786406 -0.87500006 -0.24162458 -0.875 0C -0.87500006 0.24162458 -0.78957283 0.44786406 -0.61871845 0.61871845C -0.44786406 0.78957283 -0.24162458 0.87500006 0 0.875C 0.24162458 0.87500006 0.44786406 0.78957283 0.61871845 0.61871845C 0.78957283 0.44786406 0.87500006 0.24162458 0.875 0" stroke="none" fill="#000088" fill-rule="nonzero" />
	<g transform="matrix(0.13777778 0 0 0.1362963 31 21.72222)">
	</g>
    <path transform="matrix(0.13777778 0 0 0.1362963 31 21.72222)"  d="M0 17.5L0.6 7L0 2L-0.6 7L0 17.5z" stroke="none" fill="#000088" fill-rule="nonzero" />
	<g transform="matrix(0.13659906 0.017790232 -0.017983608 0.13513026 48.89048 32.25577)">
	</g>
    <path transform="matrix(0.13659906 0.017790232 -0.017983608 0.13513026 48.89048 32.25577)"  d="M0.875 0C 0.87500006 -0.24162458 0.78957283 -0.44786406 0.61871845 -0.61871845C 0.44786406 -0.78957283 0.24162458 -0.87500006 0 -0.875C -0.24162458 -0.87500006 -0.44786406 -0.78957283 -0.61871845 -0.61871845C -0.78957283 -0.44786406 -0.87500006 -0.24162458 -0.875 0C -0.87500006 0.24162458 -0.78957283 0.44786406 -0.61871845 0.61871845C -0.44786406 0.78957283 -0.24162458 0.87500006 0 0.875C 0.24162458 0.87500006 0.44786406 0.78957283 0.61871845 0.61871845C 0.78957283 0.44786406 0.87500006 0.24162458 0.875 0" stroke="none" fill="#000088" fill-rule="nonzero" />
	<g transform="matrix(0.13777778 0 0 0.1362963 46.5 31.944443)">
	</g>
    <path transform="matrix(0.13777778 0 0 0.1362963 46.5 31.944443)"  d="M0 17.5L0.6 7L0 2L-0.6 7L0 17.5z" stroke="none" fill="#000088" fill-rule="nonzero" />
	<g transform="matrix(0.13659906 0.017790232 -0.017983608 0.13513026 33.39048 22.033546)">
	</g>
    <path transform="matrix(0.13659906 0.017790232 -0.017983608 0.13513026 33.39048 22.033546)"  d="M0.875 0C 0.87500006 -0.24162458 0.78957283 -0.44786406 0.61871845 -0.61871845C 0.44786406 -0.78957283 0.24162458 -0.87500006 0 -0.875C -0.24162458 -0.87500006 -0.44786406 -0.78957283 -0.61871845 -0.61871845C -0.78957283 -0.44786406 -0.87500006 -0.24162458 -0.875 0C -0.87500006 0.24162458 -0.78957283 0.44786406 -0.61871845 0.61871845C -0.44786406 0.78957283 -0.24162458 0.87500006 0 0.875C 0.24162458 0.87500006 0.44786406 0.78957283 0.61871845 0.61871845C 0.78957283 0.44786406 0.87500006 0.24162458 0.875 0" stroke="none" fill="#000088" fill-rule="nonzero" />
	<g transform="matrix(0.13777778 0 0 0.1362963 31 21.72222)">
	</g>
    <path transform="matrix(0.13777778 0 0 0.1362963 31 21.72222)"  d="M0 17.5L0.6 7L0 2L-0.6 7L0 17.5z" stroke="none" fill="#000088" fill-rule="nonzero" />
	<g transform="matrix(0.13659906 0.017790232 -0.017983608 0.13513026 79.89047 52.700214)">
	</g>
    <path transform="matrix(0.13659906 0.017790232 -0.017983608 0.13513026 79.89047 52.700214)"  d="M0.875 0C 0.87500006 -0.24162458 0.78957283 -0.44786406 0.61871845 -0.61871845C 0.44786406 -0.78957283 0.24162458 -0.87500006 0 -0.875C -0.24162458 -0.87500006 -0.44786406 -0.78957283 -0.61871845 -0.61871845C -0.78957283 -0.44786406 -0.87500006 -0.24162458 -0.875 0C -0.87500006 0.24162458 -0.78957283 0.44786406 -0.61871845 0.61871845C -0.44786406 0.78957283 -0.24162458 0.87500006 0 0.875C 0.24162458 0.87500006 0.44786406 0.78957283 0.61871845 0.61871845C 0.78957283 0.44786406 0.87500006 0.24162458 0.875 0" stroke="none" fill="#000088" fill-rule="nonzero" />
	<g transform="matrix(0.13777778 0 0 0.1362963 77.5 52.388885)">
	</g>
    <path transform="matrix(0.13777778 0 0 0.1362963 77.5 52.388885)"  d="M0 17.5L0.6 7L0 2L-0.6 7L0 17.5z" stroke="none" fill="#000088" fill-rule="nonzero" />
	<g transform="matrix(0.13659906 0.017790232 -0.017983608 0.13513026 33.39048 22.033546)">
	</g>
    <path transform="matrix(0.13659906 0.017790232 -0.017983608 0.13513026 33.39048 22.033546)"  d="M0.875 0C 0.87500006 -0.24162458 0.78957283 -0.44786406 0.61871845 -0.61871845C 0.44786406 -0.78957283 0.24162458 -0.87500006 0 -0.875C -0.24162458 -0.87500006 -0.44786406 -0.78957283 -0.61871845 -0.61871845C -0.78957283 -0.44786406 -0.87500006 -0.24162458 -0.875 0C -0.87500006 0.24162458 -0.78957283 0.44786406 -0.61871845 0.61871845C -0.44786406 0.78957283 -0.24162458 0.87500006 0 0.875C 0.24162458 0.87500006 0.44786406 0.78957283 0.61871845 0.61871845C 0.78957283 0.44786406 0.87500006 0.24162458 0.875 0" stroke="none" fill="#000088" fill-rule="nonzero" />
	<g transform="matrix(0.13777778 0 0 0.1362963 31 21.72222)">
	</g>
    <path transform="matrix(0.13777778 0 0 0.1362963 31 21.72222)"  d="M0 17.5L0.6 7L0 2L-0.6 7L0 17.5z" stroke="none" fill="#000088" fill-rule="nonzero" />
	<g transform="matrix(0.13659906 0.017790232 -0.017983608 0.13513026 48.89048 32.25577)">
	</g>
    <path transform="matrix(0.13659906 0.017790232 -0.017983608 0.13513026 48.89048 32.25577)"  d="M0.875 0C 0.87500006 -0.24162458 0.78957283 -0.44786406 0.61871845 -0.61871845C 0.44786406 -0.78957283 0.24162458 -0.87500006 0 -0.875C -0.24162458 -0.87500006 -0.44786406 -0.78957283 -0.61871845 -0.61871845C -0.78957283 -0.44786406 -0.87500006 -0.24162458 -0.875 0C -0.87500006 0.24162458 -0.78957283 0.44786406 -0.61871845 0.61871845C -0.44786406 0.78957283 -0.24162458 0.87500006 0 0.875C 0.24162458 0.87500006 0.44786406 0.78957283 0.61871845 0.61871845C 0.78957283 0.44786406 0.87500006 0.24162458 0.875 0" stroke="none" fill="#000088" fill-rule="nonzero" />
	<g transform="matrix(0.13777778 0 0 0.1362963 46.5 31.944443)">
	</g>
    <path transform="matrix(0.13777778 0 0 0.1362963 46.5 31.944443)"  d="M0 17.5L0.6 7L0 2L-0.6 7L0 17.5z" stroke="none" fill="#000088" fill-rule="nonzero" />
	<g transform="matrix(0.13659906 0.017790232 -0.017983608 0.13513026 33.39048 22.033546)">
	</g>
    <path transform="matrix(0.13659906 0.017790232 -0.017983608 0.13513026 33.39048 22.033546)"  d="M0.875 0C 0.87500006 -0.24162458 0.78957283 -0.44786406 0.61871845 -0.61871845C 0.44786406 -0.78957283 0.24162458 -0.87500006 0 -0.875C -0.24162458 -0.87500006 -0.44786406 -0.78957283 -0.61871845 -0.61871845C -0.78957283 -0.44786406 -0.87500006 -0.24162458 -0.875 0C -0.87500006 0.24162458 -0.78957283 0.44786406 -0.61871845 0.61871845C -0.44786406 0.78957283 -0.24162458 0.87500006 0 0.875C 0.24162458 0.87500006 0.44786406 0.78957283 0.61871845 0.61871845C 0.78957283 0.44786406 0.87500006 0.24162458 0.875 0" stroke="none" fill="#000088" fill-rule="nonzero" />
	<g transform="matrix(0.13777778 0 0 0.1362963 31 21.72222)">
	</g>
    <path transform="matrix(0.13777778 0 0 0.1362963 31 21.72222)"  d="M0 17.5L0.6 7L0 2L-0.6 7L0 17.5z" stroke="none" fill="#000088" fill-rule="nonzero" />
	<g transform="matrix(0.13659906 0.017790232 -0.017983608 0.13513026 64.39047 42.47799)">
	</g>
    <path transform="matrix(0.13659906 0.017790232 -0.017983608 0.13513026 64.39047 42.47799)"  d="M0.875 0C 0.87500006 -0.24162458 0.78957283 -0.44786406 0.61871845 -0.61871845C 0.44786406 -0.78957283 0.24162458 -0.87500006 0 -0.875C -0.24162458 -0.87500006 -0.44786406 -0.78957283 -0.61871845 -0.61871845C -0.78957283 -0.44786406 -0.87500006 -0.24162458 -0.875 0C -0.87500006 0.24162458 -0.78957283 0.44786406 -0.61871845 0.61871845C -0.44786406 0.78957283 -0.24162458 0.87500006 0 0.875C 0.24162458 0.87500006 0.44786406 0.78957283 0.61871845 0.61871845C 0.78957283 0.44786406 0.87500006 0.24162458 0.875 0" stroke="none" fill="#000088" fill-rule="nonzero" />
	<g transform="matrix(0.13777778 0 0 0.1362963 62 42.166664)">
	</g>
    <path transform="matrix(0.13777778 0 0 0.1362963 62 42.166664)"  d="M0 17.5L0.6 7L0 2L-0.6 7L0 17.5z" stroke="none" fill="#000088" fill-rule="nonzero" />
	<g transform="matrix(0.13659906 0.017790232 -0.017983608 0.13513026 33.39048 22.033546)">
	</g>
    <path transform="matrix(0.13659906 0.017790232 -0.017983608 0.13513026 33.39048 22.033546)"  d="M0.875 0C 0.87500006 -0.24162458 0.78957283 -0.44786406 0.61871845 -0.61871845C 0.44786406 -0.78957283 0.24162458 -0.87500006 0 -0.875C -0.24162458 -0.87500006 -0.44786406 -0.78957283 -0.61871845 -0.61871845C -0.78957283 -0.44786406 -0.87500006 -0.24162458 -0.875 0C -0.87500006 0.24162458 -0.78957283 0.44786406 -0.61871845 0.61871845C -0.44786406 0.78957283 -0.24162458 0.87500006 0 0.875C 0.24162458 0.87500006 0.44786406 0.78957283 0.61871845 0.61871845C 0.78957283 0.44786406 0.87500006 0.24162458 0.875 0" stroke="none" fill="#000088" fill-rule="nonzero" />
	<g transform="matrix(0.13777778 0 0 0.1362963 31 21.72222)">
	</g>
    <path transform="matrix(0.13777778 0 0 0.1362963 31 21.72222)"  d="M0 17.5L0.6 7L0 2L-0.6 7L0 17.5z" stroke="none" fill="#000088" fill-rule="nonzero" />
	<g transform="matrix(0.13659906 0.017790232 -0.017983608 0.13513026 48.89048 32.25577)">
	</g>
    <path transform="matrix(0.13659906 0.017790232 -0.017983608 0.13513026 48.89048 32.25577)"  d="M0.875 0C 0.87500006 -0.24162458 0.78957283 -0.44786406 0.61871845 -0.61871845C 0.44786406 -0.78957283 0.24162458 -0.87500006 0 -0.875C -0.24162458 -0.87500006 -0.44786406 -0.78957283 -0.61871845 -0.61871845C -0.78957283 -0.44786406 -0.87500006 -0.24162458 -0.875 0C -0.87500006 0.24162458 -0.78957283 0.44786406 -0.61871845 0.61871845C -0.44786406 0.78957283 -0.24162458 0.87500006 0 0.875C 0.24162458 0.87500006 0.44786406 0.78957283 0.61871845 0.61871845C 0.78957283 0.44786406 0.87500006 0.24162458 0.875 0" stroke="none" fill="#000088" fill-rule="nonzero" />
	<g transform="matrix(0.13777778 0 0 0.1362963 46.5 31.944443)">
	</g>
    <path transform="matrix(0.13777778 0 0 0.1362963 46.5 31.944443)"  d="M0 17.5L0.6 7L0 2L-0.6 7L0 17.5z" stroke="none" fill="#000088" fill-rule="nonzero" />
	<g transform="matrix(0.13659906 0.017790232 -0.017983608 0.13513026 33.39048 22.033546)">
	</g>
    <path transform="matrix(0.13659906 0.017790232 -0.017983608 0.13513026 33.39048 22.033546)"  d="M0.875 0C 0.87500006 -0.24162458 0.78957283 -0.44786406 0.61871845 -0.61871845C 0.44786406 -0.78957283 0.24162458 -0.87500006 0 -0.875C -0.24162458 -0.87500006 -0.44786406 -0.78957283 -0.61871845 -0.61871845C -0.78957283 -0.44786406 -0.87500006 -0.24162458 -0.875 0C -0.87500006 0.24162458 -0.78957283 0.44786406 -0.61871845 0.61871845C -0.44786406 0.78957283 -0.24162458 0.87500006 0 0.875C 0.24162458 0.87500006 0.44786406 0.78957283 0.61871845 0.61871845C 0.78957283 0.44786406 0.87500006 0.24162458 0.875 0" stroke="none" fill="#000088" fill-rule="nonzero" />
	<g transform="matrix(0.13777778 0 0 0.1362963 31 21.72222)">
	</g>
    <path transform="matrix(0.13777778 0 0 0.1362963 31 21.72222)"  d="M0 17.5L0.6 7L0 2L-0.6 7L0 17.5z" stroke="none" fill="#000088" fill-rule="nonzero" />
</g>
</svg>